ISO-10303-21;
HEADER;
/* Generated by software containing ST-Developer
 * from STEP Tools, Inc. (www.steptools.com) 
 */

FILE_DESCRIPTION(
/* description */ (''),
/* implementation_level */ '2;1');

FILE_NAME(
/* name */ 'basis.step',
/* time_stamp */ '2026-04-04T17:36:03+02:00',
/* author */ (''),
/* organization */ (''),
/* preprocessor_version */ 'ST-DEVELOPER v20.1',
/* originating_system */ 'Autodesk Translation Framework v14.24.0.0',
/* authorisation */ '');

FILE_SCHEMA (('AUTOMOTIVE_DESIGN { 1 0 10303 214 3 1 1 }'));
ENDSEC;

DATA;
#10=MECHANICAL_DESIGN_GEOMETRIC_PRESENTATION_REPRESENTATION('',(#13),#925);
#11=SHAPE_REPRESENTATION_RELATIONSHIP('SRR','None',#932,#12);
#12=ADVANCED_BREP_SHAPE_REPRESENTATION('',(#14),#924);
#13=STYLED_ITEM('',(#942),#14);
#14=MANIFOLD_SOLID_BREP('Base',#505);
#15=FACE_BOUND('',#88,.T.);
#16=FACE_BOUND('',#92,.T.);
#17=FACE_BOUND('',#101,.T.);
#18=FACE_BOUND('',#102,.T.);
#19=FACE_BOUND('',#103,.T.);
#20=FACE_BOUND('',#104,.T.);
#21=FACE_BOUND('',#107,.T.);
#22=FACE_BOUND('',#113,.T.);
#23=FACE_BOUND('',#114,.T.);
#24=FACE_BOUND('',#115,.T.);
#25=FACE_BOUND('',#116,.T.);
#26=FACE_BOUND('',#118,.T.);
#27=PLANE('',#537);
#28=PLANE('',#556);
#29=PLANE('',#557);
#30=PLANE('',#565);
#31=PLANE('',#569);
#32=PLANE('',#573);
#33=PLANE('',#577);
#34=PLANE('',#581);
#35=PLANE('',#585);
#36=PLANE('',#590);
#37=PLANE('',#595);
#38=PLANE('',#596);
#39=FACE_OUTER_BOUND('',#73,.T.);
#40=FACE_OUTER_BOUND('',#74,.T.);
#41=FACE_OUTER_BOUND('',#75,.T.);
#42=FACE_OUTER_BOUND('',#76,.T.);
#43=FACE_OUTER_BOUND('',#77,.T.);
#44=FACE_OUTER_BOUND('',#78,.T.);
#45=FACE_OUTER_BOUND('',#79,.T.);
#46=FACE_OUTER_BOUND('',#80,.T.);
#47=FACE_OUTER_BOUND('',#81,.T.);
#48=FACE_OUTER_BOUND('',#82,.T.);
#49=FACE_OUTER_BOUND('',#83,.T.);
#50=FACE_OUTER_BOUND('',#84,.T.);
#51=FACE_OUTER_BOUND('',#85,.T.);
#52=FACE_OUTER_BOUND('',#86,.T.);
#53=FACE_OUTER_BOUND('',#87,.T.);
#54=FACE_OUTER_BOUND('',#89,.T.);
#55=FACE_OUTER_BOUND('',#90,.T.);
#56=FACE_OUTER_BOUND('',#91,.T.);
#57=FACE_OUTER_BOUND('',#93,.T.);
#58=FACE_OUTER_BOUND('',#94,.T.);
#59=FACE_OUTER_BOUND('',#95,.T.);
#60=FACE_OUTER_BOUND('',#96,.T.);
#61=FACE_OUTER_BOUND('',#97,.T.);
#62=FACE_OUTER_BOUND('',#98,.T.);
#63=FACE_OUTER_BOUND('',#99,.T.);
#64=FACE_OUTER_BOUND('',#100,.T.);
#65=FACE_OUTER_BOUND('',#105,.T.);
#66=FACE_OUTER_BOUND('',#106,.T.);
#67=FACE_OUTER_BOUND('',#108,.T.);
#68=FACE_OUTER_BOUND('',#109,.T.);
#69=FACE_OUTER_BOUND('',#110,.T.);
#70=FACE_OUTER_BOUND('',#111,.T.);
#71=FACE_OUTER_BOUND('',#112,.T.);
#72=FACE_OUTER_BOUND('',#117,.T.);
#73=EDGE_LOOP('',(#317,#318,#319,#320));
#74=EDGE_LOOP('',(#321,#322,#323,#324));
#75=EDGE_LOOP('',(#325,#326,#327,#328));
#76=EDGE_LOOP('',(#329,#330,#331,#332));
#77=EDGE_LOOP('',(#333,#334,#335,#336));
#78=EDGE_LOOP('',(#337,#338,#339,#340));
#79=EDGE_LOOP('',(#341,#342,#343,#344,#345,#346));
#80=EDGE_LOOP('',(#347,#348,#349,#350));
#81=EDGE_LOOP('',(#351,#352,#353,#354));
#82=EDGE_LOOP('',(#355,#356,#357,#358));
#83=EDGE_LOOP('',(#359,#360,#361,#362));
#84=EDGE_LOOP('',(#363,#364,#365,#366));
#85=EDGE_LOOP('',(#367,#368,#369,#370));
#86=EDGE_LOOP('',(#371,#372,#373,#374,#375,#376));
#87=EDGE_LOOP('',(#377));
#88=EDGE_LOOP('',(#378));
#89=EDGE_LOOP('',(#379,#380,#381,#382));
#90=EDGE_LOOP('',(#383,#384,#385,#386));
#91=EDGE_LOOP('',(#387));
#92=EDGE_LOOP('',(#388));
#93=EDGE_LOOP('',(#389,#390,#391,#392));
#94=EDGE_LOOP('',(#393));
#95=EDGE_LOOP('',(#394,#395,#396,#397));
#96=EDGE_LOOP('',(#398));
#97=EDGE_LOOP('',(#399,#400,#401,#402));
#98=EDGE_LOOP('',(#403));
#99=EDGE_LOOP('',(#404,#405,#406,#407));
#100=EDGE_LOOP('',(#408));
#101=EDGE_LOOP('',(#409));
#102=EDGE_LOOP('',(#410));
#103=EDGE_LOOP('',(#411));
#104=EDGE_LOOP('',(#412));
#105=EDGE_LOOP('',(#413,#414,#415,#416));
#106=EDGE_LOOP('',(#417));
#107=EDGE_LOOP('',(#418));
#108=EDGE_LOOP('',(#419,#420,#421,#422));
#109=EDGE_LOOP('',(#423));
#110=EDGE_LOOP('',(#424,#425,#426,#427));
#111=EDGE_LOOP('',(#428,#429,#430,#431));
#112=EDGE_LOOP('',(#432));
#113=EDGE_LOOP('',(#433,#434,#435,#436,#437,#438));
#114=EDGE_LOOP('',(#439,#440,#441,#442,#443,#444));
#115=EDGE_LOOP('',(#445));
#116=EDGE_LOOP('',(#446));
#117=EDGE_LOOP('',(#447));
#118=EDGE_LOOP('',(#448));
#119=LINE('',#783,#141);
#120=LINE('',#786,#142);
#121=LINE('',#791,#143);
#122=LINE('',#797,#144);
#123=LINE('',#803,#145);
#124=LINE('',#809,#146);
#125=LINE('',#820,#147);
#126=LINE('',#823,#148);
#127=LINE('',#828,#149);
#128=LINE('',#834,#150);
#129=LINE('',#840,#151);
#130=LINE('',#846,#152);
#131=LINE('',#859,#153);
#132=LINE('',#865,#154);
#133=LINE('',#872,#155);
#134=LINE('',#879,#156);
#135=LINE('',#886,#157);
#136=LINE('',#893,#158);
#137=LINE('',#900,#159);
#138=LINE('',#909,#160);
#139=LINE('',#915,#161);
#140=LINE('',#919,#162);
#141=VECTOR('',#603,10.);
#142=VECTOR('',#606,10.);
#143=VECTOR('',#611,10.);
#144=VECTOR('',#618,10.);
#145=VECTOR('',#625,10.);
#146=VECTOR('',#632,10.);
#147=VECTOR('',#647,10.);
#148=VECTOR('',#650,10.);
#149=VECTOR('',#655,10.);
#150=VECTOR('',#662,10.);
#151=VECTOR('',#669,10.);
#152=VECTOR('',#676,10.);
#153=VECTOR('',#695,25.);
#154=VECTOR('',#702,27.);
#155=VECTOR('',#711,6.5);
#156=VECTOR('',#720,7.5);
#157=VECTOR('',#729,7.5);
#158=VECTOR('',#738,60.);
#159=VECTOR('',#747,60.);
#160=VECTOR('',#758,27.);
#161=VECTOR('',#767,27.);
#162=VECTOR('',#772,64.);
#163=CIRCLE('',#520,31.);
#164=CIRCLE('',#521,31.);
#165=CIRCLE('',#523,2.25);
#166=CIRCLE('',#524,2.25);
#167=CIRCLE('',#526,56.);
#168=CIRCLE('',#527,56.);
#169=CIRCLE('',#529,2.25);
#170=CIRCLE('',#530,2.25);
#171=CIRCLE('',#532,31.0000000000031);
#172=CIRCLE('',#533,31.0000000000031);
#173=CIRCLE('',#535,15.);
#174=CIRCLE('',#536,15.);
#175=CIRCLE('',#539,31.);
#176=CIRCLE('',#540,31.);
#177=CIRCLE('',#542,2.25);
#178=CIRCLE('',#543,2.25);
#179=CIRCLE('',#545,56.);
#180=CIRCLE('',#546,56.);
#181=CIRCLE('',#548,2.25);
#182=CIRCLE('',#549,2.25);
#183=CIRCLE('',#551,31.0000000000031);
#184=CIRCLE('',#552,31.0000000000031);
#185=CIRCLE('',#554,15.);
#186=CIRCLE('',#555,15.);
#187=CIRCLE('',#558,27.);
#188=CIRCLE('',#559,25.);
#189=CIRCLE('',#561,25.);
#190=CIRCLE('',#563,27.);
#191=CIRCLE('',#564,27.);
#192=CIRCLE('',#567,6.5);
#193=CIRCLE('',#568,6.5);
#194=CIRCLE('',#571,7.5);
#195=CIRCLE('',#572,7.5);
#196=CIRCLE('',#575,7.5);
#197=CIRCLE('',#576,7.5);
#198=CIRCLE('',#579,57.);
#199=CIRCLE('',#580,57.);
#200=CIRCLE('',#583,60.);
#201=CIRCLE('',#584,60.);
#202=CIRCLE('',#586,64.);
#203=CIRCLE('',#588,27.);
#204=CIRCLE('',#589,27.);
#205=CIRCLE('',#592,27.);
#206=CIRCLE('',#594,64.);
#207=VERTEX_POINT('',#779);
#208=VERTEX_POINT('',#780);
#209=VERTEX_POINT('',#782);
#210=VERTEX_POINT('',#784);
#211=VERTEX_POINT('',#788);
#212=VERTEX_POINT('',#790);
#213=VERTEX_POINT('',#794);
#214=VERTEX_POINT('',#796);
#215=VERTEX_POINT('',#800);
#216=VERTEX_POINT('',#802);
#217=VERTEX_POINT('',#806);
#218=VERTEX_POINT('',#808);
#219=VERTEX_POINT('',#816);
#220=VERTEX_POINT('',#817);
#221=VERTEX_POINT('',#819);
#222=VERTEX_POINT('',#821);
#223=VERTEX_POINT('',#825);
#224=VERTEX_POINT('',#827);
#225=VERTEX_POINT('',#831);
#226=VERTEX_POINT('',#833);
#227=VERTEX_POINT('',#837);
#228=VERTEX_POINT('',#839);
#229=VERTEX_POINT('',#843);
#230=VERTEX_POINT('',#845);
#231=VERTEX_POINT('',#853);
#232=VERTEX_POINT('',#855);
#233=VERTEX_POINT('',#858);
#234=VERTEX_POINT('',#862);
#235=VERTEX_POINT('',#864);
#236=VERTEX_POINT('',#869);
#237=VERTEX_POINT('',#871);
#238=VERTEX_POINT('',#876);
#239=VERTEX_POINT('',#878);
#240=VERTEX_POINT('',#883);
#241=VERTEX_POINT('',#885);
#242=VERTEX_POINT('',#890);
#243=VERTEX_POINT('',#892);
#244=VERTEX_POINT('',#897);
#245=VERTEX_POINT('',#899);
#246=VERTEX_POINT('',#903);
#247=VERTEX_POINT('',#906);
#248=VERTEX_POINT('',#908);
#249=VERTEX_POINT('',#913);
#250=VERTEX_POINT('',#917);
#251=EDGE_CURVE('',#207,#208,#163,.T.);
#252=EDGE_CURVE('',#207,#209,#119,.T.);
#253=EDGE_CURVE('',#209,#210,#164,.T.);
#254=EDGE_CURVE('',#208,#210,#120,.T.);
#255=EDGE_CURVE('',#211,#207,#165,.T.);
#256=EDGE_CURVE('',#211,#212,#121,.T.);
#257=EDGE_CURVE('',#212,#209,#166,.T.);
#258=EDGE_CURVE('',#213,#211,#167,.T.);
#259=EDGE_CURVE('',#213,#214,#122,.T.);
#260=EDGE_CURVE('',#214,#212,#168,.T.);
#261=EDGE_CURVE('',#215,#213,#169,.T.);
#262=EDGE_CURVE('',#215,#216,#123,.T.);
#263=EDGE_CURVE('',#216,#214,#170,.T.);
#264=EDGE_CURVE('',#217,#215,#171,.T.);
#265=EDGE_CURVE('',#217,#218,#124,.T.);
#266=EDGE_CURVE('',#218,#216,#172,.T.);
#267=EDGE_CURVE('',#208,#217,#173,.T.);
#268=EDGE_CURVE('',#210,#218,#174,.T.);
#269=EDGE_CURVE('',#219,#220,#175,.T.);
#270=EDGE_CURVE('',#219,#221,#125,.T.);
#271=EDGE_CURVE('',#221,#222,#176,.T.);
#272=EDGE_CURVE('',#220,#222,#126,.T.);
#273=EDGE_CURVE('',#223,#219,#177,.T.);
#274=EDGE_CURVE('',#223,#224,#127,.T.);
#275=EDGE_CURVE('',#224,#221,#178,.T.);
#276=EDGE_CURVE('',#225,#223,#179,.T.);
#277=EDGE_CURVE('',#225,#226,#128,.T.);
#278=EDGE_CURVE('',#226,#224,#180,.T.);
#279=EDGE_CURVE('',#227,#225,#181,.T.);
#280=EDGE_CURVE('',#227,#228,#129,.T.);
#281=EDGE_CURVE('',#228,#226,#182,.T.);
#282=EDGE_CURVE('',#229,#227,#183,.T.);
#283=EDGE_CURVE('',#229,#230,#130,.T.);
#284=EDGE_CURVE('',#230,#228,#184,.T.);
#285=EDGE_CURVE('',#220,#229,#185,.T.);
#286=EDGE_CURVE('',#222,#230,#186,.T.);
#287=EDGE_CURVE('',#231,#231,#187,.T.);
#288=EDGE_CURVE('',#232,#232,#188,.T.);
#289=EDGE_CURVE('',#232,#233,#131,.T.);
#290=EDGE_CURVE('',#233,#233,#189,.T.);
#291=EDGE_CURVE('',#234,#234,#190,.T.);
#292=EDGE_CURVE('',#234,#235,#132,.T.);
#293=EDGE_CURVE('',#235,#235,#191,.T.);
#294=EDGE_CURVE('',#236,#236,#192,.T.);
#295=EDGE_CURVE('',#236,#237,#133,.T.);
#296=EDGE_CURVE('',#237,#237,#193,.T.);
#297=EDGE_CURVE('',#238,#238,#194,.T.);
#298=EDGE_CURVE('',#238,#239,#134,.T.);
#299=EDGE_CURVE('',#239,#239,#195,.T.);
#300=EDGE_CURVE('',#240,#240,#196,.T.);
#301=EDGE_CURVE('',#240,#241,#135,.T.);
#302=EDGE_CURVE('',#241,#241,#197,.T.);
#303=EDGE_CURVE('',#242,#242,#198,.T.);
#304=EDGE_CURVE('',#242,#243,#136,.T.);
#305=EDGE_CURVE('',#243,#243,#199,.T.);
#306=EDGE_CURVE('',#244,#244,#200,.T.);
#307=EDGE_CURVE('',#244,#245,#137,.T.);
#308=EDGE_CURVE('',#245,#245,#201,.T.);
#309=EDGE_CURVE('',#246,#246,#202,.T.);
#310=EDGE_CURVE('',#247,#247,#203,.T.);
#311=EDGE_CURVE('',#247,#248,#138,.T.);
#312=EDGE_CURVE('',#248,#248,#204,.T.);
#313=EDGE_CURVE('',#249,#249,#205,.T.);
#314=EDGE_CURVE('',#249,#231,#139,.T.);
#315=EDGE_CURVE('',#250,#250,#206,.F.);
#316=EDGE_CURVE('',#250,#246,#140,.T.);
#317=ORIENTED_EDGE('',*,*,#251,.F.);
#318=ORIENTED_EDGE('',*,*,#252,.T.);
#319=ORIENTED_EDGE('',*,*,#253,.T.);
#320=ORIENTED_EDGE('',*,*,#254,.F.);
#321=ORIENTED_EDGE('',*,*,#255,.F.);
#322=ORIENTED_EDGE('',*,*,#256,.T.);
#323=ORIENTED_EDGE('',*,*,#257,.T.);
#324=ORIENTED_EDGE('',*,*,#252,.F.);
#325=ORIENTED_EDGE('',*,*,#258,.F.);
#326=ORIENTED_EDGE('',*,*,#259,.T.);
#327=ORIENTED_EDGE('',*,*,#260,.T.);
#328=ORIENTED_EDGE('',*,*,#256,.F.);
#329=ORIENTED_EDGE('',*,*,#261,.F.);
#330=ORIENTED_EDGE('',*,*,#262,.T.);
#331=ORIENTED_EDGE('',*,*,#263,.T.);
#332=ORIENTED_EDGE('',*,*,#259,.F.);
#333=ORIENTED_EDGE('',*,*,#264,.F.);
#334=ORIENTED_EDGE('',*,*,#265,.T.);
#335=ORIENTED_EDGE('',*,*,#266,.T.);
#336=ORIENTED_EDGE('',*,*,#262,.F.);
#337=ORIENTED_EDGE('',*,*,#267,.F.);
#338=ORIENTED_EDGE('',*,*,#254,.T.);
#339=ORIENTED_EDGE('',*,*,#268,.T.);
#340=ORIENTED_EDGE('',*,*,#265,.F.);
#341=ORIENTED_EDGE('',*,*,#268,.F.);
#342=ORIENTED_EDGE('',*,*,#253,.F.);
#343=ORIENTED_EDGE('',*,*,#257,.F.);
#344=ORIENTED_EDGE('',*,*,#260,.F.);
#345=ORIENTED_EDGE('',*,*,#263,.F.);
#346=ORIENTED_EDGE('',*,*,#266,.F.);
#347=ORIENTED_EDGE('',*,*,#269,.F.);
#348=ORIENTED_EDGE('',*,*,#270,.T.);
#349=ORIENTED_EDGE('',*,*,#271,.T.);
#350=ORIENTED_EDGE('',*,*,#272,.F.);
#351=ORIENTED_EDGE('',*,*,#273,.F.);
#352=ORIENTED_EDGE('',*,*,#274,.T.);
#353=ORIENTED_EDGE('',*,*,#275,.T.);
#354=ORIENTED_EDGE('',*,*,#270,.F.);
#355=ORIENTED_EDGE('',*,*,#276,.F.);
#356=ORIENTED_EDGE('',*,*,#277,.T.);
#357=ORIENTED_EDGE('',*,*,#278,.T.);
#358=ORIENTED_EDGE('',*,*,#274,.F.);
#359=ORIENTED_EDGE('',*,*,#279,.F.);
#360=ORIENTED_EDGE('',*,*,#280,.T.);
#361=ORIENTED_EDGE('',*,*,#281,.T.);
#362=ORIENTED_EDGE('',*,*,#277,.F.);
#363=ORIENTED_EDGE('',*,*,#282,.F.);
#364=ORIENTED_EDGE('',*,*,#283,.T.);
#365=ORIENTED_EDGE('',*,*,#284,.T.);
#366=ORIENTED_EDGE('',*,*,#280,.F.);
#367=ORIENTED_EDGE('',*,*,#285,.F.);
#368=ORIENTED_EDGE('',*,*,#272,.T.);
#369=ORIENTED_EDGE('',*,*,#286,.T.);
#370=ORIENTED_EDGE('',*,*,#283,.F.);
#371=ORIENTED_EDGE('',*,*,#286,.F.);
#372=ORIENTED_EDGE('',*,*,#271,.F.);
#373=ORIENTED_EDGE('',*,*,#275,.F.);
#374=ORIENTED_EDGE('',*,*,#278,.F.);
#375=ORIENTED_EDGE('',*,*,#281,.F.);
#376=ORIENTED_EDGE('',*,*,#284,.F.);
#377=ORIENTED_EDGE('',*,*,#287,.F.);
#378=ORIENTED_EDGE('',*,*,#288,.T.);
#379=ORIENTED_EDGE('',*,*,#288,.F.);
#380=ORIENTED_EDGE('',*,*,#289,.T.);
#381=ORIENTED_EDGE('',*,*,#290,.F.);
#382=ORIENTED_EDGE('',*,*,#289,.F.);
#383=ORIENTED_EDGE('',*,*,#291,.F.);
#384=ORIENTED_EDGE('',*,*,#292,.T.);
#385=ORIENTED_EDGE('',*,*,#293,.T.);
#386=ORIENTED_EDGE('',*,*,#292,.F.);
#387=ORIENTED_EDGE('',*,*,#293,.F.);
#388=ORIENTED_EDGE('',*,*,#290,.T.);
#389=ORIENTED_EDGE('',*,*,#294,.F.);
#390=ORIENTED_EDGE('',*,*,#295,.T.);
#391=ORIENTED_EDGE('',*,*,#296,.T.);
#392=ORIENTED_EDGE('',*,*,#295,.F.);
#393=ORIENTED_EDGE('',*,*,#296,.F.);
#394=ORIENTED_EDGE('',*,*,#297,.F.);
#395=ORIENTED_EDGE('',*,*,#298,.T.);
#396=ORIENTED_EDGE('',*,*,#299,.F.);
#397=ORIENTED_EDGE('',*,*,#298,.F.);
#398=ORIENTED_EDGE('',*,*,#297,.T.);
#399=ORIENTED_EDGE('',*,*,#300,.F.);
#400=ORIENTED_EDGE('',*,*,#301,.T.);
#401=ORIENTED_EDGE('',*,*,#302,.F.);
#402=ORIENTED_EDGE('',*,*,#301,.F.);
#403=ORIENTED_EDGE('',*,*,#300,.T.);
#404=ORIENTED_EDGE('',*,*,#303,.F.);
#405=ORIENTED_EDGE('',*,*,#304,.T.);
#406=ORIENTED_EDGE('',*,*,#305,.T.);
#407=ORIENTED_EDGE('',*,*,#304,.F.);
#408=ORIENTED_EDGE('',*,*,#305,.F.);
#409=ORIENTED_EDGE('',*,*,#291,.T.);
#410=ORIENTED_EDGE('',*,*,#294,.T.);
#411=ORIENTED_EDGE('',*,*,#299,.T.);
#412=ORIENTED_EDGE('',*,*,#302,.T.);
#413=ORIENTED_EDGE('',*,*,#306,.F.);
#414=ORIENTED_EDGE('',*,*,#307,.T.);
#415=ORIENTED_EDGE('',*,*,#308,.T.);
#416=ORIENTED_EDGE('',*,*,#307,.F.);
#417=ORIENTED_EDGE('',*,*,#309,.F.);
#418=ORIENTED_EDGE('',*,*,#308,.F.);
#419=ORIENTED_EDGE('',*,*,#310,.F.);
#420=ORIENTED_EDGE('',*,*,#311,.T.);
#421=ORIENTED_EDGE('',*,*,#312,.T.);
#422=ORIENTED_EDGE('',*,*,#311,.F.);
#423=ORIENTED_EDGE('',*,*,#312,.F.);
#424=ORIENTED_EDGE('',*,*,#313,.F.);
#425=ORIENTED_EDGE('',*,*,#314,.T.);
#426=ORIENTED_EDGE('',*,*,#287,.T.);
#427=ORIENTED_EDGE('',*,*,#314,.F.);
#428=ORIENTED_EDGE('',*,*,#315,.F.);
#429=ORIENTED_EDGE('',*,*,#316,.T.);
#430=ORIENTED_EDGE('',*,*,#309,.T.);
#431=ORIENTED_EDGE('',*,*,#316,.F.);
#432=ORIENTED_EDGE('',*,*,#306,.T.);
#433=ORIENTED_EDGE('',*,*,#251,.T.);
#434=ORIENTED_EDGE('',*,*,#267,.T.);
#435=ORIENTED_EDGE('',*,*,#264,.T.);
#436=ORIENTED_EDGE('',*,*,#261,.T.);
#437=ORIENTED_EDGE('',*,*,#258,.T.);
#438=ORIENTED_EDGE('',*,*,#255,.T.);
#439=ORIENTED_EDGE('',*,*,#269,.T.);
#440=ORIENTED_EDGE('',*,*,#285,.T.);
#441=ORIENTED_EDGE('',*,*,#282,.T.);
#442=ORIENTED_EDGE('',*,*,#279,.T.);
#443=ORIENTED_EDGE('',*,*,#276,.T.);
#444=ORIENTED_EDGE('',*,*,#273,.T.);
#445=ORIENTED_EDGE('',*,*,#310,.T.);
#446=ORIENTED_EDGE('',*,*,#313,.T.);
#447=ORIENTED_EDGE('',*,*,#315,.T.);
#448=ORIENTED_EDGE('',*,*,#303,.T.);
#449=CYLINDRICAL_SURFACE('',#519,31.);
#450=CYLINDRICAL_SURFACE('',#522,2.25);
#451=CYLINDRICAL_SURFACE('',#525,56.);
#452=CYLINDRICAL_SURFACE('',#528,2.25);
#453=CYLINDRICAL_SURFACE('',#531,31.0000000000031);
#454=CYLINDRICAL_SURFACE('',#534,15.);
#455=CYLINDRICAL_SURFACE('',#538,31.);
#456=CYLINDRICAL_SURFACE('',#541,2.25);
#457=CYLINDRICAL_SURFACE('',#544,56.);
#458=CYLINDRICAL_SURFACE('',#547,2.25);
#459=CYLINDRICAL_SURFACE('',#550,31.0000000000031);
#460=CYLINDRICAL_SURFACE('',#553,15.);
#461=CYLINDRICAL_SURFACE('',#560,25.);
#462=CYLINDRICAL_SURFACE('',#562,27.);
#463=CYLINDRICAL_SURFACE('',#566,6.5);
#464=CYLINDRICAL_SURFACE('',#570,7.5);
#465=CYLINDRICAL_SURFACE('',#574,7.5);
#466=CYLINDRICAL_SURFACE('',#578,57.);
#467=CYLINDRICAL_SURFACE('',#582,60.);
#468=CYLINDRICAL_SURFACE('',#587,27.);
#469=CYLINDRICAL_SURFACE('',#591,27.);
#470=CYLINDRICAL_SURFACE('',#593,64.);
#471=ADVANCED_FACE('',(#39),#449,.T.);
#472=ADVANCED_FACE('',(#40),#450,.F.);
#473=ADVANCED_FACE('',(#41),#451,.F.);
#474=ADVANCED_FACE('',(#42),#452,.F.);
#475=ADVANCED_FACE('',(#43),#453,.T.);
#476=ADVANCED_FACE('',(#44),#454,.F.);
#477=ADVANCED_FACE('',(#45),#27,.T.);
#478=ADVANCED_FACE('',(#46),#455,.T.);
#479=ADVANCED_FACE('',(#47),#456,.F.);
#480=ADVANCED_FACE('',(#48),#457,.F.);
#481=ADVANCED_FACE('',(#49),#458,.F.);
#482=ADVANCED_FACE('',(#50),#459,.T.);
#483=ADVANCED_FACE('',(#51),#460,.F.);
#484=ADVANCED_FACE('',(#52),#28,.T.);
#485=ADVANCED_FACE('',(#53,#15),#29,.T.);
#486=ADVANCED_FACE('',(#54),#461,.F.);
#487=ADVANCED_FACE('',(#55),#462,.F.);
#488=ADVANCED_FACE('',(#56,#16),#30,.T.);
#489=ADVANCED_FACE('',(#57),#463,.F.);
#490=ADVANCED_FACE('',(#58),#31,.T.);
#491=ADVANCED_FACE('',(#59),#464,.T.);
#492=ADVANCED_FACE('',(#60),#32,.T.);
#493=ADVANCED_FACE('',(#61),#465,.T.);
#494=ADVANCED_FACE('',(#62),#33,.T.);
#495=ADVANCED_FACE('',(#63),#466,.F.);
#496=ADVANCED_FACE('',(#64,#17,#18,#19,#20),#34,.T.);
#497=ADVANCED_FACE('',(#65),#467,.T.);
#498=ADVANCED_FACE('',(#66,#21),#35,.T.);
#499=ADVANCED_FACE('',(#67),#468,.F.);
#500=ADVANCED_FACE('',(#68),#36,.T.);
#501=ADVANCED_FACE('',(#69),#469,.F.);
#502=ADVANCED_FACE('',(#70),#470,.T.);
#503=ADVANCED_FACE('',(#71,#22,#23,#24,#25),#37,.T.);
#504=ADVANCED_FACE('',(#72,#26),#38,.F.);
#505=CLOSED_SHELL('',(#471,#472,#473,#474,#475,#476,#477,#478,#479,#480,
#481,#482,#483,#484,#485,#486,#487,#488,#489,#490,#491,#492,#493,#494,#495,
#496,#497,#498,#499,#500,#501,#502,#503,#504));
#506=DERIVED_UNIT_ELEMENT(#508,1.);
#507=DERIVED_UNIT_ELEMENT(#927,-3.);
#508=(
MASS_UNIT()
NAMED_UNIT(*)
SI_UNIT(.KILO.,.GRAM.)
);
#509=DERIVED_UNIT((#506,#507));
#510=MEASURE_REPRESENTATION_ITEM('density measure',
POSITIVE_RATIO_MEASURE(7850.),#509);
#511=PROPERTY_DEFINITION_REPRESENTATION(#516,#513);
#512=PROPERTY_DEFINITION_REPRESENTATION(#517,#514);
#513=REPRESENTATION('material name',(#515),#924);
#514=REPRESENTATION('density',(#510),#924);
#515=DESCRIPTIVE_REPRESENTATION_ITEM('Steel','Steel');
#516=PROPERTY_DEFINITION('material property','material name',#934);
#517=PROPERTY_DEFINITION('material property','density of part',#934);
#518=AXIS2_PLACEMENT_3D('',#777,#597,#598);
#519=AXIS2_PLACEMENT_3D('',#778,#599,#600);
#520=AXIS2_PLACEMENT_3D('',#781,#601,#602);
#521=AXIS2_PLACEMENT_3D('',#785,#604,#605);
#522=AXIS2_PLACEMENT_3D('',#787,#607,#608);
#523=AXIS2_PLACEMENT_3D('',#789,#609,#610);
#524=AXIS2_PLACEMENT_3D('',#792,#612,#613);
#525=AXIS2_PLACEMENT_3D('',#793,#614,#615);
#526=AXIS2_PLACEMENT_3D('',#795,#616,#617);
#527=AXIS2_PLACEMENT_3D('',#798,#619,#620);
#528=AXIS2_PLACEMENT_3D('',#799,#621,#622);
#529=AXIS2_PLACEMENT_3D('',#801,#623,#624);
#530=AXIS2_PLACEMENT_3D('',#804,#626,#627);
#531=AXIS2_PLACEMENT_3D('',#805,#628,#629);
#532=AXIS2_PLACEMENT_3D('',#807,#630,#631);
#533=AXIS2_PLACEMENT_3D('',#810,#633,#634);
#534=AXIS2_PLACEMENT_3D('',#811,#635,#636);
#535=AXIS2_PLACEMENT_3D('',#812,#637,#638);
#536=AXIS2_PLACEMENT_3D('',#813,#639,#640);
#537=AXIS2_PLACEMENT_3D('',#814,#641,#642);
#538=AXIS2_PLACEMENT_3D('',#815,#643,#644);
#539=AXIS2_PLACEMENT_3D('',#818,#645,#646);
#540=AXIS2_PLACEMENT_3D('',#822,#648,#649);
#541=AXIS2_PLACEMENT_3D('',#824,#651,#652);
#542=AXIS2_PLACEMENT_3D('',#826,#653,#654);
#543=AXIS2_PLACEMENT_3D('',#829,#656,#657);
#544=AXIS2_PLACEMENT_3D('',#830,#658,#659);
#545=AXIS2_PLACEMENT_3D('',#832,#660,#661);
#546=AXIS2_PLACEMENT_3D('',#835,#663,#664);
#547=AXIS2_PLACEMENT_3D('',#836,#665,#666);
#548=AXIS2_PLACEMENT_3D('',#838,#667,#668);
#549=AXIS2_PLACEMENT_3D('',#841,#670,#671);
#550=AXIS2_PLACEMENT_3D('',#842,#672,#673);
#551=AXIS2_PLACEMENT_3D('',#844,#674,#675);
#552=AXIS2_PLACEMENT_3D('',#847,#677,#678);
#553=AXIS2_PLACEMENT_3D('',#848,#679,#680);
#554=AXIS2_PLACEMENT_3D('',#849,#681,#682);
#555=AXIS2_PLACEMENT_3D('',#850,#683,#684);
#556=AXIS2_PLACEMENT_3D('',#851,#685,#686);
#557=AXIS2_PLACEMENT_3D('',#852,#687,#688);
#558=AXIS2_PLACEMENT_3D('',#854,#689,#690);
#559=AXIS2_PLACEMENT_3D('',#856,#691,#692);
#560=AXIS2_PLACEMENT_3D('',#857,#693,#694);
#561=AXIS2_PLACEMENT_3D('',#860,#696,#697);
#562=AXIS2_PLACEMENT_3D('',#861,#698,#699);
#563=AXIS2_PLACEMENT_3D('',#863,#700,#701);
#564=AXIS2_PLACEMENT_3D('',#866,#703,#704);
#565=AXIS2_PLACEMENT_3D('',#867,#705,#706);
#566=AXIS2_PLACEMENT_3D('',#868,#707,#708);
#567=AXIS2_PLACEMENT_3D('',#870,#709,#710);
#568=AXIS2_PLACEMENT_3D('',#873,#712,#713);
#569=AXIS2_PLACEMENT_3D('',#874,#714,#715);
#570=AXIS2_PLACEMENT_3D('',#875,#716,#717);
#571=AXIS2_PLACEMENT_3D('',#877,#718,#719);
#572=AXIS2_PLACEMENT_3D('',#880,#721,#722);
#573=AXIS2_PLACEMENT_3D('',#881,#723,#724);
#574=AXIS2_PLACEMENT_3D('',#882,#725,#726);
#575=AXIS2_PLACEMENT_3D('',#884,#727,#728);
#576=AXIS2_PLACEMENT_3D('',#887,#730,#731);
#577=AXIS2_PLACEMENT_3D('',#888,#732,#733);
#578=AXIS2_PLACEMENT_3D('',#889,#734,#735);
#579=AXIS2_PLACEMENT_3D('',#891,#736,#737);
#580=AXIS2_PLACEMENT_3D('',#894,#739,#740);
#581=AXIS2_PLACEMENT_3D('',#895,#741,#742);
#582=AXIS2_PLACEMENT_3D('',#896,#743,#744);
#583=AXIS2_PLACEMENT_3D('',#898,#745,#746);
#584=AXIS2_PLACEMENT_3D('',#901,#748,#749);
#585=AXIS2_PLACEMENT_3D('',#902,#750,#751);
#586=AXIS2_PLACEMENT_3D('',#904,#752,#753);
#587=AXIS2_PLACEMENT_3D('',#905,#754,#755);
#588=AXIS2_PLACEMENT_3D('',#907,#756,#757);
#589=AXIS2_PLACEMENT_3D('',#910,#759,#760);
#590=AXIS2_PLACEMENT_3D('',#911,#761,#762);
#591=AXIS2_PLACEMENT_3D('',#912,#763,#764);
#592=AXIS2_PLACEMENT_3D('',#914,#765,#766);
#593=AXIS2_PLACEMENT_3D('',#916,#768,#769);
#594=AXIS2_PLACEMENT_3D('',#918,#770,#771);
#595=AXIS2_PLACEMENT_3D('',#920,#773,#774);
#596=AXIS2_PLACEMENT_3D('',#921,#775,#776);
#597=DIRECTION('axis',(0.,0.,1.));
#598=DIRECTION('refdir',(1.,0.,0.));
#599=DIRECTION('center_axis',(0.,0.,-1.));
#600=DIRECTION('ref_axis',(0.488721804511279,0.87243968146528,0.));
#601=DIRECTION('center_axis',(0.,0.,1.));
#602=DIRECTION('ref_axis',(0.488721804511279,0.87243968146528,0.));
#603=DIRECTION('',(0.,0.,-1.));
#604=DIRECTION('center_axis',(0.,0.,1.));
#605=DIRECTION('ref_axis',(0.488721804511279,0.87243968146528,0.));
#606=DIRECTION('',(0.,0.,-1.));
#607=DIRECTION('center_axis',(0.,0.,-1.));
#608=DIRECTION('ref_axis',(-0.48872180451128,-0.87243968146528,0.));
#609=DIRECTION('center_axis',(0.,0.,-1.));
#610=DIRECTION('ref_axis',(-0.48872180451128,-0.87243968146528,0.));
#611=DIRECTION('',(0.,0.,-1.));
#612=DIRECTION('center_axis',(0.,0.,-1.));
#613=DIRECTION('ref_axis',(-0.48872180451128,-0.87243968146528,0.));
#614=DIRECTION('center_axis',(0.,0.,-1.));
#615=DIRECTION('ref_axis',(0.841860465116279,0.539695244813406,0.));
#616=DIRECTION('center_axis',(0.,0.,-1.));
#617=DIRECTION('ref_axis',(0.841860465116279,0.539695244813406,0.));
#618=DIRECTION('',(0.,0.,-1.));
#619=DIRECTION('center_axis',(0.,0.,-1.));
#620=DIRECTION('ref_axis',(0.841860465116279,0.539695244813406,0.));
#621=DIRECTION('center_axis',(0.,0.,-1.));
#622=DIRECTION('ref_axis',(-0.841860465116278,0.539695244813408,0.));
#623=DIRECTION('center_axis',(0.,0.,-1.));
#624=DIRECTION('ref_axis',(-0.841860465116278,0.539695244813408,0.));
#625=DIRECTION('',(0.,0.,-1.));
#626=DIRECTION('center_axis',(0.,0.,-1.));
#627=DIRECTION('ref_axis',(-0.841860465116278,0.539695244813408,0.));
#628=DIRECTION('center_axis',(0.,0.,-1.));
#629=DIRECTION('ref_axis',(0.630434782608706,0.776242220493779,0.));
#630=DIRECTION('center_axis',(0.,0.,1.));
#631=DIRECTION('ref_axis',(0.630434782608706,0.776242220493779,0.));
#632=DIRECTION('',(0.,0.,-1.));
#633=DIRECTION('center_axis',(0.,0.,1.));
#634=DIRECTION('ref_axis',(0.630434782608706,0.776242220493779,0.));
#635=DIRECTION('center_axis',(0.,0.,-1.));
#636=DIRECTION('ref_axis',(-0.630434782608706,-0.776242220493779,0.));
#637=DIRECTION('center_axis',(0.,0.,-1.));
#638=DIRECTION('ref_axis',(-0.630434782608706,-0.776242220493779,0.));
#639=DIRECTION('center_axis',(0.,0.,-1.));
#640=DIRECTION('ref_axis',(-0.630434782608706,-0.776242220493779,0.));
#641=DIRECTION('center_axis',(0.,0.,1.));
#642=DIRECTION('ref_axis',(-1.,0.,0.));
#643=DIRECTION('center_axis',(0.,0.,-1.));
#644=DIRECTION('ref_axis',(-0.48872180451128,-0.87243968146528,0.));
#645=DIRECTION('center_axis',(0.,0.,1.));
#646=DIRECTION('ref_axis',(-0.48872180451128,-0.87243968146528,0.));
#647=DIRECTION('',(0.,0.,-1.));
#648=DIRECTION('center_axis',(0.,0.,1.));
#649=DIRECTION('ref_axis',(-0.48872180451128,-0.87243968146528,0.));
#650=DIRECTION('',(0.,0.,-1.));
#651=DIRECTION('center_axis',(0.,0.,-1.));
#652=DIRECTION('ref_axis',(0.488721804511277,0.872439681465281,0.));
#653=DIRECTION('center_axis',(0.,0.,-1.));
#654=DIRECTION('ref_axis',(0.488721804511277,0.872439681465281,0.));
#655=DIRECTION('',(0.,0.,-1.));
#656=DIRECTION('center_axis',(0.,0.,-1.));
#657=DIRECTION('ref_axis',(0.488721804511277,0.872439681465281,0.));
#658=DIRECTION('center_axis',(0.,0.,-1.));
#659=DIRECTION('ref_axis',(-0.84186046511628,-0.539695244813405,0.));
#660=DIRECTION('center_axis',(0.,0.,-1.));
#661=DIRECTION('ref_axis',(-0.84186046511628,-0.539695244813405,0.));
#662=DIRECTION('',(0.,0.,-1.));
#663=DIRECTION('center_axis',(0.,0.,-1.));
#664=DIRECTION('ref_axis',(-0.84186046511628,-0.539695244813405,0.));
#665=DIRECTION('center_axis',(0.,0.,-1.));
#666=DIRECTION('ref_axis',(0.84186046511628,-0.539695244813405,0.));
#667=DIRECTION('center_axis',(0.,0.,-1.));
#668=DIRECTION('ref_axis',(0.84186046511628,-0.539695244813405,0.));
#669=DIRECTION('',(0.,0.,-1.));
#670=DIRECTION('center_axis',(0.,0.,-1.));
#671=DIRECTION('ref_axis',(0.84186046511628,-0.539695244813405,0.));
#672=DIRECTION('center_axis',(0.,0.,-1.));
#673=DIRECTION('ref_axis',(-0.630434782608707,-0.776242220493779,0.));
#674=DIRECTION('center_axis',(0.,0.,1.));
#675=DIRECTION('ref_axis',(-0.630434782608707,-0.776242220493779,0.));
#676=DIRECTION('',(0.,0.,-1.));
#677=DIRECTION('center_axis',(0.,0.,1.));
#678=DIRECTION('ref_axis',(-0.630434782608707,-0.776242220493779,0.));
#679=DIRECTION('center_axis',(0.,0.,-1.));
#680=DIRECTION('ref_axis',(0.630434782608707,0.776242220493779,0.));
#681=DIRECTION('center_axis',(0.,0.,-1.));
#682=DIRECTION('ref_axis',(0.630434782608707,0.776242220493779,0.));
#683=DIRECTION('center_axis',(0.,0.,-1.));
#684=DIRECTION('ref_axis',(0.630434782608707,0.776242220493779,0.));
#685=DIRECTION('center_axis',(0.,0.,1.));
#686=DIRECTION('ref_axis',(-1.,0.,0.));
#687=DIRECTION('center_axis',(0.,0.,1.));
#688=DIRECTION('ref_axis',(1.,0.,0.));
#689=DIRECTION('center_axis',(0.,0.,-1.));
#690=DIRECTION('ref_axis',(1.,0.,0.));
#691=DIRECTION('center_axis',(0.,0.,-1.));
#692=DIRECTION('ref_axis',(1.,0.,0.));
#693=DIRECTION('center_axis',(0.,0.,-1.));
#694=DIRECTION('ref_axis',(1.,0.,0.));
#695=DIRECTION('',(0.,0.,-1.));
#696=DIRECTION('center_axis',(0.,0.,1.));
#697=DIRECTION('ref_axis',(1.,0.,0.));
#698=DIRECTION('center_axis',(0.,0.,1.));
#699=DIRECTION('ref_axis',(1.,0.,0.));
#700=DIRECTION('center_axis',(0.,0.,1.));
#701=DIRECTION('ref_axis',(1.,0.,0.));
#702=DIRECTION('',(0.,0.,1.));
#703=DIRECTION('center_axis',(0.,0.,1.));
#704=DIRECTION('ref_axis',(1.,0.,0.));
#705=DIRECTION('center_axis',(0.,0.,-1.));
#706=DIRECTION('ref_axis',(-1.,0.,0.));
#707=DIRECTION('center_axis',(0.,0.,1.));
#708=DIRECTION('ref_axis',(1.,0.,0.));
#709=DIRECTION('center_axis',(0.,0.,1.));
#710=DIRECTION('ref_axis',(1.,0.,0.));
#711=DIRECTION('',(0.,0.,1.));
#712=DIRECTION('center_axis',(0.,0.,1.));
#713=DIRECTION('ref_axis',(1.,0.,0.));
#714=DIRECTION('center_axis',(0.,0.,-1.));
#715=DIRECTION('ref_axis',(-1.,0.,0.));
#716=DIRECTION('center_axis',(0.,0.,-1.));
#717=DIRECTION('ref_axis',(1.,0.,0.));
#718=DIRECTION('center_axis',(0.,0.,-1.));
#719=DIRECTION('ref_axis',(1.,0.,0.));
#720=DIRECTION('',(0.,0.,1.));
#721=DIRECTION('center_axis',(0.,0.,1.));
#722=DIRECTION('ref_axis',(1.,0.,0.));
#723=DIRECTION('center_axis',(0.,0.,-1.));
#724=DIRECTION('ref_axis',(-1.,0.,0.));
#725=DIRECTION('center_axis',(0.,0.,-1.));
#726=DIRECTION('ref_axis',(1.,0.,0.));
#727=DIRECTION('center_axis',(0.,0.,-1.));
#728=DIRECTION('ref_axis',(1.,0.,0.));
#729=DIRECTION('',(0.,0.,1.));
#730=DIRECTION('center_axis',(0.,0.,1.));
#731=DIRECTION('ref_axis',(1.,0.,0.));
#732=DIRECTION('center_axis',(0.,0.,-1.));
#733=DIRECTION('ref_axis',(-1.,0.,0.));
#734=DIRECTION('center_axis',(0.,0.,1.));
#735=DIRECTION('ref_axis',(1.,0.,0.));
#736=DIRECTION('center_axis',(0.,0.,1.));
#737=DIRECTION('ref_axis',(1.,0.,0.));
#738=DIRECTION('',(0.,0.,1.));
#739=DIRECTION('center_axis',(0.,0.,1.));
#740=DIRECTION('ref_axis',(1.,0.,0.));
#741=DIRECTION('center_axis',(0.,0.,-1.));
#742=DIRECTION('ref_axis',(-1.,0.,0.));
#743=DIRECTION('center_axis',(0.,0.,-1.));
#744=DIRECTION('ref_axis',(1.,0.,0.));
#745=DIRECTION('center_axis',(0.,0.,1.));
#746=DIRECTION('ref_axis',(1.,0.,0.));
#747=DIRECTION('',(0.,0.,-1.));
#748=DIRECTION('center_axis',(0.,0.,1.));
#749=DIRECTION('ref_axis',(1.,0.,0.));
#750=DIRECTION('center_axis',(0.,0.,1.));
#751=DIRECTION('ref_axis',(1.,0.,0.));
#752=DIRECTION('center_axis',(0.,0.,-1.));
#753=DIRECTION('ref_axis',(1.,0.,0.));
#754=DIRECTION('center_axis',(0.,0.,-1.));
#755=DIRECTION('ref_axis',(1.,0.,0.));
#756=DIRECTION('center_axis',(0.,0.,-1.));
#757=DIRECTION('ref_axis',(1.,0.,0.));
#758=DIRECTION('',(0.,0.,-1.));
#759=DIRECTION('center_axis',(0.,0.,-1.));
#760=DIRECTION('ref_axis',(1.,0.,0.));
#761=DIRECTION('center_axis',(0.,0.,1.));
#762=DIRECTION('ref_axis',(1.,0.,0.));
#763=DIRECTION('center_axis',(0.,0.,-1.));
#764=DIRECTION('ref_axis',(1.,0.,0.));
#765=DIRECTION('center_axis',(0.,0.,-1.));
#766=DIRECTION('ref_axis',(1.,0.,0.));
#767=DIRECTION('',(0.,0.,-1.));
#768=DIRECTION('center_axis',(0.,0.,-1.));
#769=DIRECTION('ref_axis',(1.,0.,0.));
#770=DIRECTION('center_axis',(0.,0.,1.));
#771=DIRECTION('ref_axis',(1.,0.,0.));
#772=DIRECTION('',(0.,0.,1.));
#773=DIRECTION('center_axis',(0.,0.,1.));
#774=DIRECTION('ref_axis',(1.,0.,0.));
#775=DIRECTION('center_axis',(0.,0.,1.));
#776=DIRECTION('ref_axis',(1.,0.,0.));
#777=CARTESIAN_POINT('',(0.,0.,0.));
#778=CARTESIAN_POINT('Origin',(29.,-2.03833610020402E-15,0.));
#779=CARTESIAN_POINT('',(44.1503759398496,27.0456301254237,0.));
#780=CARTESIAN_POINT('',(9.45652173913207,24.0635088353088,0.));
#781=CARTESIAN_POINT('Origin',(29.,-2.03833610020402E-15,0.));
#782=CARTESIAN_POINT('',(44.1503759398496,27.0456301254237,-2.));
#783=CARTESIAN_POINT('',(44.1503759398496,27.0456301254237,0.));
#784=CARTESIAN_POINT('',(9.45652173913208,24.0635088353088,-2.));
#785=CARTESIAN_POINT('Origin',(29.,-2.03833610020402E-15,-2.));
#786=CARTESIAN_POINT('',(9.45652173913207,24.0635088353088,0.));
#787=CARTESIAN_POINT('Origin',(45.25,29.0086194087206,0.));
#788=CARTESIAN_POINT('',(47.1441860465116,30.2229337095507,0.));
#789=CARTESIAN_POINT('Origin',(45.25,29.0086194087206,0.));
#790=CARTESIAN_POINT('',(47.1441860465116,30.2229337095507,-2.));
#791=CARTESIAN_POINT('',(47.1441860465116,30.2229337095507,0.));
#792=CARTESIAN_POINT('Origin',(45.25,29.0086194087206,-2.));
#793=CARTESIAN_POINT('Origin',(0.,0.,0.));
#794=CARTESIAN_POINT('',(-47.1441860465116,30.2229337095507,0.));
#795=CARTESIAN_POINT('Origin',(0.,0.,0.));
#796=CARTESIAN_POINT('',(-47.1441860465116,30.2229337095507,-2.));
#797=CARTESIAN_POINT('',(-47.1441860465116,30.2229337095507,0.));
#798=CARTESIAN_POINT('Origin',(0.,0.,-2.));
#799=CARTESIAN_POINT('Origin',(-45.25,29.0086194087206,0.));
#800=CARTESIAN_POINT('',(-44.1503759398496,27.0456301254237,0.));
#801=CARTESIAN_POINT('Origin',(-45.25,29.0086194087206,0.));
#802=CARTESIAN_POINT('',(-44.1503759398496,27.0456301254237,-2.));
#803=CARTESIAN_POINT('',(-44.1503759398496,27.0456301254237,0.));
#804=CARTESIAN_POINT('Origin',(-45.25,29.0086194087206,-2.));
#805=CARTESIAN_POINT('Origin',(-29.,2.03833610020402E-15,0.));
#806=CARTESIAN_POINT('',(-9.45652173912816,24.0635088353095,0.));
#807=CARTESIAN_POINT('Origin',(-29.,2.03833610020402E-15,0.));
#808=CARTESIAN_POINT('',(-9.45652173912816,24.0635088353095,-2.));
#809=CARTESIAN_POINT('',(-9.45652173912816,24.0635088353095,0.));
#810=CARTESIAN_POINT('Origin',(-29.,2.03833610020402E-15,-2.));
#811=CARTESIAN_POINT('Origin',(2.43727896742172E-12,35.7071421427162,0.));
#812=CARTESIAN_POINT('Origin',(2.43727896742172E-12,35.7071421427162,0.));
#813=CARTESIAN_POINT('Origin',(2.43727896742172E-12,35.7071421427162,-2.));
#814=CARTESIAN_POINT('Origin',(1.77635683940025E-14,38.3535710713581,-2.));
#815=CARTESIAN_POINT('Origin',(-29.,2.03833610020402E-15,0.));
#816=CARTESIAN_POINT('',(-44.1503759398497,-27.0456301254237,0.));
#817=CARTESIAN_POINT('',(-9.4565217391321,-24.0635088353088,0.));
#818=CARTESIAN_POINT('Origin',(-29.,2.03833610020402E-15,0.));
#819=CARTESIAN_POINT('',(-44.1503759398497,-27.0456301254237,-2.));
#820=CARTESIAN_POINT('',(-44.1503759398497,-27.0456301254237,0.));
#821=CARTESIAN_POINT('',(-9.4565217391321,-24.0635088353088,-2.));
#822=CARTESIAN_POINT('Origin',(-29.,2.03833610020402E-15,-2.));
#823=CARTESIAN_POINT('',(-9.4565217391321,-24.0635088353088,0.));
#824=CARTESIAN_POINT('Origin',(-45.25,-29.0086194087205,0.));
#825=CARTESIAN_POINT('',(-47.1441860465117,-30.2229337095507,0.));
#826=CARTESIAN_POINT('Origin',(-45.25,-29.0086194087205,0.));
#827=CARTESIAN_POINT('',(-47.1441860465117,-30.2229337095507,-2.));
#828=CARTESIAN_POINT('',(-47.1441860465117,-30.2229337095507,0.));
#829=CARTESIAN_POINT('Origin',(-45.25,-29.0086194087205,-2.));
#830=CARTESIAN_POINT('Origin',(0.,0.,0.));
#831=CARTESIAN_POINT('',(47.1441860465116,-30.2229337095507,0.));
#832=CARTESIAN_POINT('Origin',(0.,0.,0.));
#833=CARTESIAN_POINT('',(47.1441860465116,-30.2229337095507,-2.));
#834=CARTESIAN_POINT('',(47.1441860465116,-30.2229337095507,0.));
#835=CARTESIAN_POINT('Origin',(0.,0.,-2.));
#836=CARTESIAN_POINT('Origin',(45.25,-29.0086194087206,0.));
#837=CARTESIAN_POINT('',(44.1503759398496,-27.0456301254237,0.));
#838=CARTESIAN_POINT('Origin',(45.25,-29.0086194087206,0.));
#839=CARTESIAN_POINT('',(44.1503759398496,-27.0456301254237,-2.));
#840=CARTESIAN_POINT('',(44.1503759398496,-27.0456301254237,0.));
#841=CARTESIAN_POINT('Origin',(45.25,-29.0086194087206,-2.));
#842=CARTESIAN_POINT('Origin',(29.,-2.03833610020402E-15,0.));
#843=CARTESIAN_POINT('',(9.45652173912813,-24.0635088353096,0.));
#844=CARTESIAN_POINT('Origin',(29.,-2.03833610020402E-15,0.));
#845=CARTESIAN_POINT('',(9.45652173912813,-24.0635088353096,-2.));
#846=CARTESIAN_POINT('',(9.45652173912813,-24.0635088353096,0.));
#847=CARTESIAN_POINT('Origin',(29.,-2.03833610020402E-15,-2.));
#848=CARTESIAN_POINT('Origin',(-2.47396158373795E-12,-35.7071421427162,
0.));
#849=CARTESIAN_POINT('Origin',(-2.47396158373795E-12,-35.7071421427162,
0.));
#850=CARTESIAN_POINT('Origin',(-2.47396158373795E-12,-35.7071421427162,
-2.));
#851=CARTESIAN_POINT('Origin',(-8.88178419700125E-15,-38.3535710713581,
-2.));
#852=CARTESIAN_POINT('Origin',(29.,0.,-2.));
#853=CARTESIAN_POINT('',(1.99999999999999,-5.34488245790187E-15,-2.));
#854=CARTESIAN_POINT('Origin',(29.,-2.03833610020402E-15,-2.));
#855=CARTESIAN_POINT('',(3.99999999999999,1.02328089766436E-15,-2.));
#856=CARTESIAN_POINT('Origin',(29.,-2.03833610020402E-15,-2.));
#857=CARTESIAN_POINT('Origin',(29.,-2.03833610020402E-15,0.));
#858=CARTESIAN_POINT('',(3.99999999999999,-5.0999530980724E-15,-10.));
#859=CARTESIAN_POINT('',(3.99999999999999,1.02328089766436E-15,0.));
#860=CARTESIAN_POINT('Origin',(29.,-2.03833610020402E-15,-10.));
#861=CARTESIAN_POINT('Origin',(29.,-2.03833610020402E-15,-20.));
#862=CARTESIAN_POINT('',(1.99999999999999,-5.34488245790187E-15,-12.));
#863=CARTESIAN_POINT('Origin',(29.,-2.03833610020402E-15,-12.));
#864=CARTESIAN_POINT('',(1.99999999999999,-5.34488245790187E-15,-10.));
#865=CARTESIAN_POINT('',(1.99999999999999,-5.34488245790187E-15,-20.));
#866=CARTESIAN_POINT('Origin',(29.,-2.03833610020402E-15,-10.));
#867=CARTESIAN_POINT('Origin',(29.,0.,-10.));
#868=CARTESIAN_POINT('Origin',(-45.5,4.55798765481026E-15,-20.));
#869=CARTESIAN_POINT('',(-52.,3.76196723536448E-15,-12.));
#870=CARTESIAN_POINT('Origin',(-45.5,4.55798765481026E-15,-12.));
#871=CARTESIAN_POINT('',(-52.,3.76196723536448E-15,-7.));
#872=CARTESIAN_POINT('',(-52.,3.76196723536448E-15,-20.));
#873=CARTESIAN_POINT('Origin',(-45.5,4.55798765481026E-15,-7.));
#874=CARTESIAN_POINT('Origin',(-45.5,4.44089209850063E-15,-7.));
#875=CARTESIAN_POINT('Origin',(0.,-40.,-12.));
#876=CARTESIAN_POINT('',(-7.5,-40.,-18.));
#877=CARTESIAN_POINT('Origin',(0.,-40.,-18.));
#878=CARTESIAN_POINT('',(-7.5,-40.,-12.));
#879=CARTESIAN_POINT('',(-7.5,-40.,-12.));
#880=CARTESIAN_POINT('Origin',(0.,-40.,-12.));
#881=CARTESIAN_POINT('Origin',(2.77555756156289E-15,0.,-18.));
#882=CARTESIAN_POINT('Origin',(5.55111512312578E-15,40.,-12.));
#883=CARTESIAN_POINT('',(-7.49999999999999,40.,-18.));
#884=CARTESIAN_POINT('Origin',(5.55111512312578E-15,40.,-18.));
#885=CARTESIAN_POINT('',(-7.49999999999999,40.,-12.));
#886=CARTESIAN_POINT('',(-7.49999999999999,40.,-12.));
#887=CARTESIAN_POINT('Origin',(5.55111512312578E-15,40.,-12.));
#888=CARTESIAN_POINT('Origin',(2.77555756156289E-15,0.,-18.));
#889=CARTESIAN_POINT('Origin',(0.,0.,-20.));
#890=CARTESIAN_POINT('',(-57.,-6.98048675513991E-15,-23.));
#891=CARTESIAN_POINT('Origin',(0.,0.,-23.));
#892=CARTESIAN_POINT('',(-57.,-6.98048675513991E-15,-12.));
#893=CARTESIAN_POINT('',(-57.,-6.98048675513991E-15,-20.));
#894=CARTESIAN_POINT('Origin',(0.,0.,-12.));
#895=CARTESIAN_POINT('Origin',(0.,0.,-12.));
#896=CARTESIAN_POINT('Origin',(0.,0.,0.));
#897=CARTESIAN_POINT('',(-60.,-7.34788079488412E-15,0.));
#898=CARTESIAN_POINT('Origin',(0.,0.,0.));
#899=CARTESIAN_POINT('',(-60.,-7.34788079488412E-15,-5.));
#900=CARTESIAN_POINT('',(-60.,7.34788079488412E-15,0.));
#901=CARTESIAN_POINT('Origin',(0.,0.,-5.));
#902=CARTESIAN_POINT('Origin',(0.,0.,-5.));
#903=CARTESIAN_POINT('',(-64.,-7.83773951454306E-15,-5.));
#904=CARTESIAN_POINT('Origin',(0.,0.,-5.));
#905=CARTESIAN_POINT('Origin',(-29.,2.03833610020402E-15,0.));
#906=CARTESIAN_POINT('',(-56.,-1.26821025749383E-15,0.));
#907=CARTESIAN_POINT('Origin',(-29.,2.03833610020402E-15,0.));
#908=CARTESIAN_POINT('',(-56.,-1.26821025749383E-15,-5.));
#909=CARTESIAN_POINT('',(-56.,5.34488245790187E-15,0.));
#910=CARTESIAN_POINT('Origin',(-29.,2.03833610020402E-15,-5.));
#911=CARTESIAN_POINT('Origin',(-29.,0.,-5.));
#912=CARTESIAN_POINT('Origin',(29.,-2.03833610020402E-15,0.));
#913=CARTESIAN_POINT('',(1.99999999999999,-5.34488245790187E-15,0.));
#914=CARTESIAN_POINT('Origin',(29.,-2.03833610020402E-15,0.));
#915=CARTESIAN_POINT('',(1.99999999999999,1.26821025749383E-15,0.));
#916=CARTESIAN_POINT('Origin',(0.,0.,0.));
#917=CARTESIAN_POINT('',(-64.,-7.83773951454306E-15,-23.));
#918=CARTESIAN_POINT('Origin',(0.,0.,-23.));
#919=CARTESIAN_POINT('',(-64.,7.83773951454306E-15,0.));
#920=CARTESIAN_POINT('Origin',(0.,0.,0.));
#921=CARTESIAN_POINT('Origin',(0.,0.,-23.));
#922=UNCERTAINTY_MEASURE_WITH_UNIT(LENGTH_MEASURE(0.01),#926,
'DISTANCE_ACCURACY_VALUE',
'Maximum model space distance between geometric entities at asserted c
onnectivities');
#923=UNCERTAINTY_MEASURE_WITH_UNIT(LENGTH_MEASURE(0.01),#926,
'DISTANCE_ACCURACY_VALUE',
'Maximum model space distance between geometric entities at asserted c
onnectivities');
#924=(
GEOMETRIC_REPRESENTATION_CONTEXT(3)
GLOBAL_UNCERTAINTY_ASSIGNED_CONTEXT((#922))
GLOBAL_UNIT_ASSIGNED_CONTEXT((#926,#928,#929))
REPRESENTATION_CONTEXT('','3D')
);
#925=(
GEOMETRIC_REPRESENTATION_CONTEXT(3)
GLOBAL_UNCERTAINTY_ASSIGNED_CONTEXT((#923))
GLOBAL_UNIT_ASSIGNED_CONTEXT((#926,#928,#929))
REPRESENTATION_CONTEXT('','3D')
);
#926=(
LENGTH_UNIT()
NAMED_UNIT(*)
SI_UNIT(.MILLI.,.METRE.)
);
#927=(
LENGTH_UNIT()
NAMED_UNIT(*)
SI_UNIT($,.METRE.)
);
#928=(
NAMED_UNIT(*)
PLANE_ANGLE_UNIT()
SI_UNIT($,.RADIAN.)
);
#929=(
NAMED_UNIT(*)
SI_UNIT($,.STERADIAN.)
SOLID_ANGLE_UNIT()
);
#930=SHAPE_DEFINITION_REPRESENTATION(#931,#932);
#931=PRODUCT_DEFINITION_SHAPE('',$,#934);
#932=SHAPE_REPRESENTATION('',(#518),#924);
#933=PRODUCT_DEFINITION_CONTEXT('part definition',#938,'design');
#934=PRODUCT_DEFINITION('Configuration 1','Basis Sonnenuhr v10',#935,#933);
#935=PRODUCT_DEFINITION_FORMATION('',$,#940);
#936=PRODUCT_RELATED_PRODUCT_CATEGORY('Basis Sonnenuhr v10',
'Basis Sonnenuhr v10',(#940));
#937=APPLICATION_PROTOCOL_DEFINITION('international standard',
'automotive_design',2009,#938);
#938=APPLICATION_CONTEXT(
'Core Data for Automotive Mechanical Design Process');
#939=PRODUCT_CONTEXT('part definition',#938,'mechanical');
#940=PRODUCT('Configuration 1','Basis Sonnenuhr v10',$,(#939));
#941=PRESENTATION_STYLE_ASSIGNMENT((#945));
#942=PRESENTATION_STYLE_ASSIGNMENT((#946));
#943=PRESENTATION_STYLE_ASSIGNMENT((#947));
#944=PRESENTATION_STYLE_ASSIGNMENT((#948));
#945=SURFACE_STYLE_USAGE(.BOTH.,#949);
#946=SURFACE_STYLE_USAGE(.BOTH.,#950);
#947=SURFACE_STYLE_USAGE(.BOTH.,#951);
#948=SURFACE_STYLE_USAGE(.BOTH.,#952);
#949=SURFACE_SIDE_STYLE('',(#953));
#950=SURFACE_SIDE_STYLE('',(#954));
#951=SURFACE_SIDE_STYLE('',(#955));
#952=SURFACE_SIDE_STYLE('',(#956));
#953=SURFACE_STYLE_FILL_AREA(#957);
#954=SURFACE_STYLE_FILL_AREA(#958);
#955=SURFACE_STYLE_FILL_AREA(#959);
#956=SURFACE_STYLE_FILL_AREA(#960);
#957=FILL_AREA_STYLE('Steel - Satin',(#961));
#958=FILL_AREA_STYLE('Copper - Polished',(#962));
#959=FILL_AREA_STYLE('PEEK',(#963));
#960=FILL_AREA_STYLE('EPX 82 (with Carbon M2 M3 L1 3D Printers)',(#964));
#961=FILL_AREA_STYLE_COLOUR('Steel - Satin',#965);
#962=FILL_AREA_STYLE_COLOUR('Copper - Polished',#966);
#963=FILL_AREA_STYLE_COLOUR('PEEK',#967);
#964=FILL_AREA_STYLE_COLOUR('EPX 82 (with Carbon M2 M3 L1 3D Printers)',
#968);
#965=COLOUR_RGB('Steel - Satin',0.627450980392157,0.627450980392157,0.627450980392157);
#966=COLOUR_RGB('Copper - Polished',0.929411764705882,0.807843137254902,
0.764705882352941);
#967=COLOUR_RGB('PEEK',0.6,0.509803921568627,0.368627450980392);
#968=COLOUR_RGB('EPX 82 (with Carbon M2 M3 L1 3D Printers)',0.247058823529412,
0.247058823529412,0.247058823529412);
ENDSEC;
END-ISO-10303-21;
