ISO-10303-21;
HEADER;
/* Generated by software containing ST-Developer
 * from STEP Tools, Inc. (www.steptools.com) 
 */

FILE_DESCRIPTION(
/* description */ (''),
/* implementation_level */ '2;1');

FILE_NAME(
/* name */ 'deckel.step',
/* time_stamp */ '2026-04-04T17:36:16+02:00',
/* author */ (''),
/* organization */ (''),
/* preprocessor_version */ 'ST-DEVELOPER v20.1',
/* originating_system */ 'Autodesk Translation Framework v14.24.0.0',
/* authorisation */ '');

FILE_SCHEMA (('AUTOMOTIVE_DESIGN { 1 0 10303 214 3 1 1 }'));
ENDSEC;

DATA;
#10=MECHANICAL_DESIGN_GEOMETRIC_PRESENTATION_REPRESENTATION('',(#13),#398);
#11=SHAPE_REPRESENTATION_RELATIONSHIP('SRR','None',#405,#12);
#12=ADVANCED_BREP_SHAPE_REPRESENTATION('',(#14),#397);
#13=STYLED_ITEM('',(#414),#14);
#14=MANIFOLD_SOLID_BREP('Deckel',#226);
#15=FACE_BOUND('',#54,.T.);
#16=FACE_BOUND('',#55,.T.);
#17=FACE_BOUND('',#56,.T.);
#18=FACE_BOUND('',#57,.T.);
#19=FACE_BOUND('',#58,.T.);
#20=FACE_BOUND('',#59,.T.);
#21=FACE_BOUND('',#60,.T.);
#22=FACE_BOUND('',#61,.T.);
#23=FACE_BOUND('',#63,.T.);
#24=FACE_BOUND('',#64,.T.);
#25=FACE_BOUND('',#65,.T.);
#26=FACE_BOUND('',#66,.T.);
#27=FACE_BOUND('',#67,.T.);
#28=FACE_BOUND('',#68,.T.);
#29=FACE_BOUND('',#69,.T.);
#30=FACE_BOUND('',#70,.T.);
#31=PLANE('',#267);
#32=PLANE('',#268);
#33=FACE_OUTER_BOUND('',#44,.T.);
#34=FACE_OUTER_BOUND('',#45,.T.);
#35=FACE_OUTER_BOUND('',#46,.T.);
#36=FACE_OUTER_BOUND('',#47,.T.);
#37=FACE_OUTER_BOUND('',#48,.T.);
#38=FACE_OUTER_BOUND('',#49,.T.);
#39=FACE_OUTER_BOUND('',#50,.T.);
#40=FACE_OUTER_BOUND('',#51,.T.);
#41=FACE_OUTER_BOUND('',#52,.T.);
#42=FACE_OUTER_BOUND('',#53,.T.);
#43=FACE_OUTER_BOUND('',#62,.T.);
#44=EDGE_LOOP('',(#152,#153,#154,#155));
#45=EDGE_LOOP('',(#156,#157,#158,#159));
#46=EDGE_LOOP('',(#160,#161,#162,#163));
#47=EDGE_LOOP('',(#164,#165,#166,#167));
#48=EDGE_LOOP('',(#168,#169,#170,#171));
#49=EDGE_LOOP('',(#172,#173,#174,#175));
#50=EDGE_LOOP('',(#176,#177,#178,#179));
#51=EDGE_LOOP('',(#180,#181,#182,#183));
#52=EDGE_LOOP('',(#184,#185,#186,#187));
#53=EDGE_LOOP('',(#188));
#54=EDGE_LOOP('',(#189));
#55=EDGE_LOOP('',(#190));
#56=EDGE_LOOP('',(#191));
#57=EDGE_LOOP('',(#192));
#58=EDGE_LOOP('',(#193));
#59=EDGE_LOOP('',(#194));
#60=EDGE_LOOP('',(#195));
#61=EDGE_LOOP('',(#196));
#62=EDGE_LOOP('',(#197));
#63=EDGE_LOOP('',(#198));
#64=EDGE_LOOP('',(#199));
#65=EDGE_LOOP('',(#200));
#66=EDGE_LOOP('',(#201));
#67=EDGE_LOOP('',(#202));
#68=EDGE_LOOP('',(#203));
#69=EDGE_LOOP('',(#204));
#70=EDGE_LOOP('',(#205));
#71=LINE('',#343,#80);
#72=LINE('',#349,#81);
#73=LINE('',#355,#82);
#74=LINE('',#361,#83);
#75=LINE('',#367,#84);
#76=LINE('',#373,#85);
#77=LINE('',#379,#86);
#78=LINE('',#385,#87);
#79=LINE('',#391,#88);
#80=VECTOR('',#275,1.6);
#81=VECTOR('',#282,1.6);
#82=VECTOR('',#289,1.6);
#83=VECTOR('',#296,4.6);
#84=VECTOR('',#303,1.6);
#85=VECTOR('',#310,1.6);
#86=VECTOR('',#317,1.6);
#87=VECTOR('',#324,4.6);
#88=VECTOR('',#331,27.);
#89=CIRCLE('',#241,1.6);
#90=CIRCLE('',#242,1.6);
#91=CIRCLE('',#244,1.6);
#92=CIRCLE('',#245,1.6);
#93=CIRCLE('',#247,1.6);
#94=CIRCLE('',#248,1.6);
#95=CIRCLE('',#250,4.6);
#96=CIRCLE('',#251,4.6);
#97=CIRCLE('',#253,1.6);
#98=CIRCLE('',#254,1.6);
#99=CIRCLE('',#256,1.6);
#100=CIRCLE('',#257,1.6);
#101=CIRCLE('',#259,1.6);
#102=CIRCLE('',#260,1.6);
#103=CIRCLE('',#262,4.6);
#104=CIRCLE('',#263,4.6);
#105=CIRCLE('',#265,27.);
#106=CIRCLE('',#266,27.);
#107=VERTEX_POINT('',#340);
#108=VERTEX_POINT('',#342);
#109=VERTEX_POINT('',#346);
#110=VERTEX_POINT('',#348);
#111=VERTEX_POINT('',#352);
#112=VERTEX_POINT('',#354);
#113=VERTEX_POINT('',#358);
#114=VERTEX_POINT('',#360);
#115=VERTEX_POINT('',#364);
#116=VERTEX_POINT('',#366);
#117=VERTEX_POINT('',#370);
#118=VERTEX_POINT('',#372);
#119=VERTEX_POINT('',#376);
#120=VERTEX_POINT('',#378);
#121=VERTEX_POINT('',#382);
#122=VERTEX_POINT('',#384);
#123=VERTEX_POINT('',#388);
#124=VERTEX_POINT('',#390);
#125=EDGE_CURVE('',#107,#107,#89,.T.);
#126=EDGE_CURVE('',#107,#108,#71,.T.);
#127=EDGE_CURVE('',#108,#108,#90,.T.);
#128=EDGE_CURVE('',#109,#109,#91,.T.);
#129=EDGE_CURVE('',#109,#110,#72,.T.);
#130=EDGE_CURVE('',#110,#110,#92,.T.);
#131=EDGE_CURVE('',#111,#111,#93,.T.);
#132=EDGE_CURVE('',#111,#112,#73,.T.);
#133=EDGE_CURVE('',#112,#112,#94,.T.);
#134=EDGE_CURVE('',#113,#113,#95,.T.);
#135=EDGE_CURVE('',#113,#114,#74,.T.);
#136=EDGE_CURVE('',#114,#114,#96,.T.);
#137=EDGE_CURVE('',#115,#115,#97,.T.);
#138=EDGE_CURVE('',#115,#116,#75,.T.);
#139=EDGE_CURVE('',#116,#116,#98,.T.);
#140=EDGE_CURVE('',#117,#117,#99,.T.);
#141=EDGE_CURVE('',#117,#118,#76,.T.);
#142=EDGE_CURVE('',#118,#118,#100,.T.);
#143=EDGE_CURVE('',#119,#119,#101,.T.);
#144=EDGE_CURVE('',#119,#120,#77,.T.);
#145=EDGE_CURVE('',#120,#120,#102,.T.);
#146=EDGE_CURVE('',#121,#121,#103,.T.);
#147=EDGE_CURVE('',#121,#122,#78,.T.);
#148=EDGE_CURVE('',#122,#122,#104,.T.);
#149=EDGE_CURVE('',#123,#123,#105,.T.);
#150=EDGE_CURVE('',#123,#124,#79,.T.);
#151=EDGE_CURVE('',#124,#124,#106,.T.);
#152=ORIENTED_EDGE('',*,*,#125,.F.);
#153=ORIENTED_EDGE('',*,*,#126,.T.);
#154=ORIENTED_EDGE('',*,*,#127,.F.);
#155=ORIENTED_EDGE('',*,*,#126,.F.);
#156=ORIENTED_EDGE('',*,*,#128,.F.);
#157=ORIENTED_EDGE('',*,*,#129,.T.);
#158=ORIENTED_EDGE('',*,*,#130,.F.);
#159=ORIENTED_EDGE('',*,*,#129,.F.);
#160=ORIENTED_EDGE('',*,*,#131,.F.);
#161=ORIENTED_EDGE('',*,*,#132,.T.);
#162=ORIENTED_EDGE('',*,*,#133,.F.);
#163=ORIENTED_EDGE('',*,*,#132,.F.);
#164=ORIENTED_EDGE('',*,*,#134,.F.);
#165=ORIENTED_EDGE('',*,*,#135,.T.);
#166=ORIENTED_EDGE('',*,*,#136,.F.);
#167=ORIENTED_EDGE('',*,*,#135,.F.);
#168=ORIENTED_EDGE('',*,*,#137,.F.);
#169=ORIENTED_EDGE('',*,*,#138,.T.);
#170=ORIENTED_EDGE('',*,*,#139,.F.);
#171=ORIENTED_EDGE('',*,*,#138,.F.);
#172=ORIENTED_EDGE('',*,*,#140,.F.);
#173=ORIENTED_EDGE('',*,*,#141,.T.);
#174=ORIENTED_EDGE('',*,*,#142,.F.);
#175=ORIENTED_EDGE('',*,*,#141,.F.);
#176=ORIENTED_EDGE('',*,*,#143,.F.);
#177=ORIENTED_EDGE('',*,*,#144,.T.);
#178=ORIENTED_EDGE('',*,*,#145,.F.);
#179=ORIENTED_EDGE('',*,*,#144,.F.);
#180=ORIENTED_EDGE('',*,*,#146,.F.);
#181=ORIENTED_EDGE('',*,*,#147,.T.);
#182=ORIENTED_EDGE('',*,*,#148,.F.);
#183=ORIENTED_EDGE('',*,*,#147,.F.);
#184=ORIENTED_EDGE('',*,*,#149,.F.);
#185=ORIENTED_EDGE('',*,*,#150,.T.);
#186=ORIENTED_EDGE('',*,*,#151,.F.);
#187=ORIENTED_EDGE('',*,*,#150,.F.);
#188=ORIENTED_EDGE('',*,*,#151,.T.);
#189=ORIENTED_EDGE('',*,*,#125,.T.);
#190=ORIENTED_EDGE('',*,*,#128,.T.);
#191=ORIENTED_EDGE('',*,*,#131,.T.);
#192=ORIENTED_EDGE('',*,*,#134,.T.);
#193=ORIENTED_EDGE('',*,*,#137,.T.);
#194=ORIENTED_EDGE('',*,*,#140,.T.);
#195=ORIENTED_EDGE('',*,*,#143,.T.);
#196=ORIENTED_EDGE('',*,*,#146,.T.);
#197=ORIENTED_EDGE('',*,*,#149,.T.);
#198=ORIENTED_EDGE('',*,*,#127,.T.);
#199=ORIENTED_EDGE('',*,*,#130,.T.);
#200=ORIENTED_EDGE('',*,*,#133,.T.);
#201=ORIENTED_EDGE('',*,*,#136,.T.);
#202=ORIENTED_EDGE('',*,*,#139,.T.);
#203=ORIENTED_EDGE('',*,*,#142,.T.);
#204=ORIENTED_EDGE('',*,*,#145,.T.);
#205=ORIENTED_EDGE('',*,*,#148,.T.);
#206=CYLINDRICAL_SURFACE('',#240,1.6);
#207=CYLINDRICAL_SURFACE('',#243,1.6);
#208=CYLINDRICAL_SURFACE('',#246,1.6);
#209=CYLINDRICAL_SURFACE('',#249,4.6);
#210=CYLINDRICAL_SURFACE('',#252,1.6);
#211=CYLINDRICAL_SURFACE('',#255,1.6);
#212=CYLINDRICAL_SURFACE('',#258,1.6);
#213=CYLINDRICAL_SURFACE('',#261,4.6);
#214=CYLINDRICAL_SURFACE('',#264,27.);
#215=ADVANCED_FACE('',(#33),#206,.F.);
#216=ADVANCED_FACE('',(#34),#207,.F.);
#217=ADVANCED_FACE('',(#35),#208,.F.);
#218=ADVANCED_FACE('',(#36),#209,.F.);
#219=ADVANCED_FACE('',(#37),#210,.F.);
#220=ADVANCED_FACE('',(#38),#211,.F.);
#221=ADVANCED_FACE('',(#39),#212,.F.);
#222=ADVANCED_FACE('',(#40),#213,.F.);
#223=ADVANCED_FACE('',(#41),#214,.T.);
#224=ADVANCED_FACE('',(#42,#15,#16,#17,#18,#19,#20,#21,#22),#31,.T.);
#225=ADVANCED_FACE('',(#43,#23,#24,#25,#26,#27,#28,#29,#30),#32,.F.);
#226=CLOSED_SHELL('',(#215,#216,#217,#218,#219,#220,#221,#222,#223,#224,
#225));
#227=DERIVED_UNIT_ELEMENT(#229,1.);
#228=DERIVED_UNIT_ELEMENT(#400,-3.);
#229=(
MASS_UNIT()
NAMED_UNIT(*)
SI_UNIT(.KILO.,.GRAM.)
);
#230=DERIVED_UNIT((#227,#228));
#231=MEASURE_REPRESENTATION_ITEM('density measure',
POSITIVE_RATIO_MEASURE(7850.),#230);
#232=PROPERTY_DEFINITION_REPRESENTATION(#237,#234);
#233=PROPERTY_DEFINITION_REPRESENTATION(#238,#235);
#234=REPRESENTATION('material name',(#236),#397);
#235=REPRESENTATION('density',(#231),#397);
#236=DESCRIPTIVE_REPRESENTATION_ITEM('Steel','Steel');
#237=PROPERTY_DEFINITION('material property','material name',#407);
#238=PROPERTY_DEFINITION('material property','density of part',#407);
#239=AXIS2_PLACEMENT_3D('',#338,#269,#270);
#240=AXIS2_PLACEMENT_3D('',#339,#271,#272);
#241=AXIS2_PLACEMENT_3D('',#341,#273,#274);
#242=AXIS2_PLACEMENT_3D('',#344,#276,#277);
#243=AXIS2_PLACEMENT_3D('',#345,#278,#279);
#244=AXIS2_PLACEMENT_3D('',#347,#280,#281);
#245=AXIS2_PLACEMENT_3D('',#350,#283,#284);
#246=AXIS2_PLACEMENT_3D('',#351,#285,#286);
#247=AXIS2_PLACEMENT_3D('',#353,#287,#288);
#248=AXIS2_PLACEMENT_3D('',#356,#290,#291);
#249=AXIS2_PLACEMENT_3D('',#357,#292,#293);
#250=AXIS2_PLACEMENT_3D('',#359,#294,#295);
#251=AXIS2_PLACEMENT_3D('',#362,#297,#298);
#252=AXIS2_PLACEMENT_3D('',#363,#299,#300);
#253=AXIS2_PLACEMENT_3D('',#365,#301,#302);
#254=AXIS2_PLACEMENT_3D('',#368,#304,#305);
#255=AXIS2_PLACEMENT_3D('',#369,#306,#307);
#256=AXIS2_PLACEMENT_3D('',#371,#308,#309);
#257=AXIS2_PLACEMENT_3D('',#374,#311,#312);
#258=AXIS2_PLACEMENT_3D('',#375,#313,#314);
#259=AXIS2_PLACEMENT_3D('',#377,#315,#316);
#260=AXIS2_PLACEMENT_3D('',#380,#318,#319);
#261=AXIS2_PLACEMENT_3D('',#381,#320,#321);
#262=AXIS2_PLACEMENT_3D('',#383,#322,#323);
#263=AXIS2_PLACEMENT_3D('',#386,#325,#326);
#264=AXIS2_PLACEMENT_3D('',#387,#327,#328);
#265=AXIS2_PLACEMENT_3D('',#389,#329,#330);
#266=AXIS2_PLACEMENT_3D('',#392,#332,#333);
#267=AXIS2_PLACEMENT_3D('',#393,#334,#335);
#268=AXIS2_PLACEMENT_3D('',#394,#336,#337);
#269=DIRECTION('axis',(0.,0.,1.));
#270=DIRECTION('refdir',(1.,0.,0.));
#271=DIRECTION('center_axis',(0.,0.,-1.));
#272=DIRECTION('ref_axis',(1.,0.,0.));
#273=DIRECTION('center_axis',(0.,0.,-1.));
#274=DIRECTION('ref_axis',(1.,0.,0.));
#275=DIRECTION('',(0.,0.,-1.));
#276=DIRECTION('center_axis',(0.,0.,1.));
#277=DIRECTION('ref_axis',(1.,0.,0.));
#278=DIRECTION('center_axis',(0.,0.,-1.));
#279=DIRECTION('ref_axis',(1.,0.,0.));
#280=DIRECTION('center_axis',(0.,0.,-1.));
#281=DIRECTION('ref_axis',(1.,0.,0.));
#282=DIRECTION('',(0.,0.,-1.));
#283=DIRECTION('center_axis',(0.,0.,1.));
#284=DIRECTION('ref_axis',(1.,0.,0.));
#285=DIRECTION('center_axis',(0.,0.,-1.));
#286=DIRECTION('ref_axis',(1.,0.,0.));
#287=DIRECTION('center_axis',(0.,0.,-1.));
#288=DIRECTION('ref_axis',(1.,0.,0.));
#289=DIRECTION('',(0.,0.,-1.));
#290=DIRECTION('center_axis',(0.,0.,1.));
#291=DIRECTION('ref_axis',(1.,0.,0.));
#292=DIRECTION('center_axis',(0.,0.,-1.));
#293=DIRECTION('ref_axis',(1.,0.,0.));
#294=DIRECTION('center_axis',(0.,0.,-1.));
#295=DIRECTION('ref_axis',(1.,0.,0.));
#296=DIRECTION('',(0.,0.,-1.));
#297=DIRECTION('center_axis',(0.,0.,1.));
#298=DIRECTION('ref_axis',(1.,0.,0.));
#299=DIRECTION('center_axis',(0.,0.,-1.));
#300=DIRECTION('ref_axis',(1.,0.,0.));
#301=DIRECTION('center_axis',(0.,0.,-1.));
#302=DIRECTION('ref_axis',(1.,0.,0.));
#303=DIRECTION('',(0.,0.,-1.));
#304=DIRECTION('center_axis',(0.,0.,1.));
#305=DIRECTION('ref_axis',(1.,0.,0.));
#306=DIRECTION('center_axis',(0.,0.,-1.));
#307=DIRECTION('ref_axis',(1.,0.,0.));
#308=DIRECTION('center_axis',(0.,0.,-1.));
#309=DIRECTION('ref_axis',(1.,0.,0.));
#310=DIRECTION('',(0.,0.,-1.));
#311=DIRECTION('center_axis',(0.,0.,1.));
#312=DIRECTION('ref_axis',(1.,0.,0.));
#313=DIRECTION('center_axis',(0.,0.,-1.));
#314=DIRECTION('ref_axis',(1.,0.,0.));
#315=DIRECTION('center_axis',(0.,0.,-1.));
#316=DIRECTION('ref_axis',(1.,0.,0.));
#317=DIRECTION('',(0.,0.,-1.));
#318=DIRECTION('center_axis',(0.,0.,1.));
#319=DIRECTION('ref_axis',(1.,0.,0.));
#320=DIRECTION('center_axis',(0.,0.,-1.));
#321=DIRECTION('ref_axis',(1.,0.,0.));
#322=DIRECTION('center_axis',(0.,0.,-1.));
#323=DIRECTION('ref_axis',(1.,0.,0.));
#324=DIRECTION('',(0.,0.,-1.));
#325=DIRECTION('center_axis',(0.,0.,1.));
#326=DIRECTION('ref_axis',(1.,0.,0.));
#327=DIRECTION('center_axis',(0.,0.,-1.));
#328=DIRECTION('ref_axis',(1.,0.,0.));
#329=DIRECTION('center_axis',(0.,0.,-1.));
#330=DIRECTION('ref_axis',(1.,0.,0.));
#331=DIRECTION('',(0.,0.,1.));
#332=DIRECTION('center_axis',(0.,0.,1.));
#333=DIRECTION('ref_axis',(1.,0.,0.));
#334=DIRECTION('center_axis',(0.,0.,1.));
#335=DIRECTION('ref_axis',(1.,0.,0.));
#336=DIRECTION('center_axis',(0.,0.,1.));
#337=DIRECTION('ref_axis',(1.,0.,0.));
#338=CARTESIAN_POINT('',(0.,0.,0.));
#339=CARTESIAN_POINT('Origin',(39.5,-18.1865334794732,0.));
#340=CARTESIAN_POINT('',(37.9,-18.1865334794732,0.));
#341=CARTESIAN_POINT('Origin',(39.5,-18.1865334794732,0.));
#342=CARTESIAN_POINT('',(37.9,-18.1865334794732,-2.));
#343=CARTESIAN_POINT('',(37.9,-18.1865334794732,0.));
#344=CARTESIAN_POINT('Origin',(39.5,-18.1865334794732,-2.));
#345=CARTESIAN_POINT('Origin',(8.,2.00945866436006E-15,0.));
#346=CARTESIAN_POINT('',(6.4,1.81351517649648E-15,0.));
#347=CARTESIAN_POINT('Origin',(8.,2.00945866436006E-15,0.));
#348=CARTESIAN_POINT('',(6.4,1.81351517649648E-15,-2.));
#349=CARTESIAN_POINT('',(6.4,2.20540215222363E-15,0.));
#350=CARTESIAN_POINT('Origin',(8.,2.00945866436006E-15,-2.));
#351=CARTESIAN_POINT('Origin',(18.5,18.1865334794732,0.));
#352=CARTESIAN_POINT('',(16.9,18.1865334794732,0.));
#353=CARTESIAN_POINT('Origin',(18.5,18.1865334794732,0.));
#354=CARTESIAN_POINT('',(16.9,18.1865334794732,-2.));
#355=CARTESIAN_POINT('',(16.9,18.1865334794732,0.));
#356=CARTESIAN_POINT('Origin',(18.5,18.1865334794732,-2.));
#357=CARTESIAN_POINT('Origin',(29.,-10.,0.));
#358=CARTESIAN_POINT('',(24.4,-10.,0.));
#359=CARTESIAN_POINT('Origin',(29.,-10.,0.));
#360=CARTESIAN_POINT('',(24.4,-10.,-2.));
#361=CARTESIAN_POINT('',(24.4,-10.,0.));
#362=CARTESIAN_POINT('Origin',(29.,-10.,-2.));
#363=CARTESIAN_POINT('Origin',(50.,-3.51437258655865E-15,0.));
#364=CARTESIAN_POINT('',(48.4,-3.71031607442223E-15,0.));
#365=CARTESIAN_POINT('Origin',(50.,-3.51437258655865E-15,0.));
#366=CARTESIAN_POINT('',(48.4,-3.71031607442223E-15,-2.));
#367=CARTESIAN_POINT('',(48.4,-3.31842909869508E-15,0.));
#368=CARTESIAN_POINT('Origin',(50.,-3.51437258655865E-15,-2.));
#369=CARTESIAN_POINT('Origin',(18.5,-18.1865334794732,0.));
#370=CARTESIAN_POINT('',(16.9,-18.1865334794732,0.));
#371=CARTESIAN_POINT('Origin',(18.5,-18.1865334794732,0.));
#372=CARTESIAN_POINT('',(16.9,-18.1865334794732,-2.));
#373=CARTESIAN_POINT('',(16.9,-18.1865334794732,0.));
#374=CARTESIAN_POINT('Origin',(18.5,-18.1865334794732,-2.));
#375=CARTESIAN_POINT('Origin',(39.5,18.1865334794732,0.));
#376=CARTESIAN_POINT('',(37.9,18.1865334794732,0.));
#377=CARTESIAN_POINT('Origin',(39.5,18.1865334794732,0.));
#378=CARTESIAN_POINT('',(37.9,18.1865334794732,-2.));
#379=CARTESIAN_POINT('',(37.9,18.1865334794732,0.));
#380=CARTESIAN_POINT('Origin',(39.5,18.1865334794732,-2.));
#381=CARTESIAN_POINT('Origin',(29.,10.,0.));
#382=CARTESIAN_POINT('',(24.4,9.99999999999999,0.));
#383=CARTESIAN_POINT('Origin',(29.,10.,0.));
#384=CARTESIAN_POINT('',(24.4,9.99999999999999,-2.));
#385=CARTESIAN_POINT('',(24.4,10.,0.));
#386=CARTESIAN_POINT('Origin',(29.,10.,-2.));
#387=CARTESIAN_POINT('Origin',(29.,-2.03833610020402E-15,0.));
#388=CARTESIAN_POINT('',(1.99999999999999,-5.34488245790187E-15,-2.));
#389=CARTESIAN_POINT('Origin',(29.,-2.03833610020402E-15,-2.));
#390=CARTESIAN_POINT('',(1.99999999999999,-5.34488245790187E-15,0.));
#391=CARTESIAN_POINT('',(1.99999999999999,1.26821025749383E-15,0.));
#392=CARTESIAN_POINT('Origin',(29.,-2.03833610020402E-15,0.));
#393=CARTESIAN_POINT('Origin',(29.,0.,0.));
#394=CARTESIAN_POINT('Origin',(29.,0.,-2.));
#395=UNCERTAINTY_MEASURE_WITH_UNIT(LENGTH_MEASURE(0.01),#399,
'DISTANCE_ACCURACY_VALUE',
'Maximum model space distance between geometric entities at asserted c
onnectivities');
#396=UNCERTAINTY_MEASURE_WITH_UNIT(LENGTH_MEASURE(0.01),#399,
'DISTANCE_ACCURACY_VALUE',
'Maximum model space distance between geometric entities at asserted c
onnectivities');
#397=(
GEOMETRIC_REPRESENTATION_CONTEXT(3)
GLOBAL_UNCERTAINTY_ASSIGNED_CONTEXT((#395))
GLOBAL_UNIT_ASSIGNED_CONTEXT((#399,#401,#402))
REPRESENTATION_CONTEXT('','3D')
);
#398=(
GEOMETRIC_REPRESENTATION_CONTEXT(3)
GLOBAL_UNCERTAINTY_ASSIGNED_CONTEXT((#396))
GLOBAL_UNIT_ASSIGNED_CONTEXT((#399,#401,#402))
REPRESENTATION_CONTEXT('','3D')
);
#399=(
LENGTH_UNIT()
NAMED_UNIT(*)
SI_UNIT(.MILLI.,.METRE.)
);
#400=(
LENGTH_UNIT()
NAMED_UNIT(*)
SI_UNIT($,.METRE.)
);
#401=(
NAMED_UNIT(*)
PLANE_ANGLE_UNIT()
SI_UNIT($,.RADIAN.)
);
#402=(
NAMED_UNIT(*)
SI_UNIT($,.STERADIAN.)
SOLID_ANGLE_UNIT()
);
#403=SHAPE_DEFINITION_REPRESENTATION(#404,#405);
#404=PRODUCT_DEFINITION_SHAPE('',$,#407);
#405=SHAPE_REPRESENTATION('',(#239),#397);
#406=PRODUCT_DEFINITION_CONTEXT('part definition',#411,'design');
#407=PRODUCT_DEFINITION('Configuration 1','Basis Sonnenuhr v10',#408,#406);
#408=PRODUCT_DEFINITION_FORMATION('',$,#413);
#409=PRODUCT_RELATED_PRODUCT_CATEGORY('Basis Sonnenuhr v10',
'Basis Sonnenuhr v10',(#413));
#410=APPLICATION_PROTOCOL_DEFINITION('international standard',
'automotive_design',2009,#411);
#411=APPLICATION_CONTEXT(
'Core Data for Automotive Mechanical Design Process');
#412=PRODUCT_CONTEXT('part definition',#411,'mechanical');
#413=PRODUCT('Configuration 1','Basis Sonnenuhr v10',$,(#412));
#414=PRESENTATION_STYLE_ASSIGNMENT((#418));
#415=PRESENTATION_STYLE_ASSIGNMENT((#419));
#416=PRESENTATION_STYLE_ASSIGNMENT((#420));
#417=PRESENTATION_STYLE_ASSIGNMENT((#421));
#418=SURFACE_STYLE_USAGE(.BOTH.,#422);
#419=SURFACE_STYLE_USAGE(.BOTH.,#423);
#420=SURFACE_STYLE_USAGE(.BOTH.,#424);
#421=SURFACE_STYLE_USAGE(.BOTH.,#425);
#422=SURFACE_SIDE_STYLE('',(#426));
#423=SURFACE_SIDE_STYLE('',(#427));
#424=SURFACE_SIDE_STYLE('',(#428));
#425=SURFACE_SIDE_STYLE('',(#429));
#426=SURFACE_STYLE_FILL_AREA(#430);
#427=SURFACE_STYLE_FILL_AREA(#431);
#428=SURFACE_STYLE_FILL_AREA(#432);
#429=SURFACE_STYLE_FILL_AREA(#433);
#430=FILL_AREA_STYLE('Steel - Satin',(#434));
#431=FILL_AREA_STYLE('Copper - Polished',(#435));
#432=FILL_AREA_STYLE('PEEK',(#436));
#433=FILL_AREA_STYLE('EPX 82 (with Carbon M2 M3 L1 3D Printers)',(#437));
#434=FILL_AREA_STYLE_COLOUR('Steel - Satin',#438);
#435=FILL_AREA_STYLE_COLOUR('Copper - Polished',#439);
#436=FILL_AREA_STYLE_COLOUR('PEEK',#440);
#437=FILL_AREA_STYLE_COLOUR('EPX 82 (with Carbon M2 M3 L1 3D Printers)',
#441);
#438=COLOUR_RGB('Steel - Satin',0.627450980392157,0.627450980392157,0.627450980392157);
#439=COLOUR_RGB('Copper - Polished',0.929411764705882,0.807843137254902,
0.764705882352941);
#440=COLOUR_RGB('PEEK',0.6,0.509803921568627,0.368627450980392);
#441=COLOUR_RGB('EPX 82 (with Carbon M2 M3 L1 3D Printers)',0.247058823529412,
0.247058823529412,0.247058823529412);
ENDSEC;
END-ISO-10303-21;
